HIERARCHY
ROOT Hips
{
	OFFSET	0.00	0.00	0.00
	CHANNELS 6 Xposition Yposition Zposition Zrotation Xrotation Yrotation
	JOINT LeftUpLeg
	{
		OFFSET	 0.126116	-0.065224	 0.014019
		CHANNELS 3 Zrotation Xrotation Yrotation
		JOINT LeftLeg
		{
			OFFSET	 0.000000	 0.569914	 0.000000
			CHANNELS 3 Zrotation Xrotation Yrotation
			JOINT LeftFoot
			{
				OFFSET	 0.000000	 0.544423	 0.000000
				CHANNELS 3 Zrotation Xrotation Yrotation
				JOINT LeftToeBase
				{
					OFFSET	 0.000000	 0.207117	 0.000000
					CHANNELS 3 Zrotation Xrotation Yrotation
					End Site
					{
						OFFSET	 0.000000	 0.207117	 0.000000
					}
				}
			}
		}
	}
	JOINT RightUpLeg
	{
		OFFSET	-0.124023	-0.065224	 0.008373
		CHANNELS 3 Zrotation Xrotation Yrotation
		JOINT RightLeg
		{
			OFFSET	 0.000000	 0.570047	 0.000000
			CHANNELS 3 Zrotation Xrotation Yrotation
			JOINT RightFoot
			{
				OFFSET	 0.000000	 0.544354	 0.000000
				CHANNELS 3 Zrotation Xrotation Yrotation
				JOINT RightToeBase
				{
					OFFSET	 0.000000	 0.207540	 0.000000
					CHANNELS 3 Zrotation Xrotation Yrotation
					End Site
					{
						OFFSET	 0.000000	 0.207540	 0.000000
					}
				}
			}
		}
	}
	JOINT Spine
	{
		OFFSET	 0.000184	 0.117403	 0.007763
		CHANNELS 3 Zrotation Xrotation Yrotation
		JOINT Spine1
		{
			OFFSET	 0.000000	 0.137269	 0.000000
			CHANNELS 3 Zrotation Xrotation Yrotation
			JOINT Spine2
			{
				OFFSET	 0.000000	 0.156879	 0.000000
				CHANNELS 3 Zrotation Xrotation Yrotation
				JOINT LeftShoulder
				{
					OFFSET	 0.080501	 0.160143	 0.002496
					CHANNELS 3 Zrotation Xrotation Yrotation
					JOINT LeftArm
					{
						OFFSET	 0.000000	 0.164363	 0.000000
						CHANNELS 3 Zrotation Xrotation Yrotation
						JOINT LeftForeArm
						{
							OFFSET	 0.000000	 0.364576	 0.000000
							CHANNELS 3 Zrotation Xrotation Yrotation
							JOINT LeftHand
							{
								OFFSET	 0.000000	 0.360812	 0.000000
								CHANNELS 3 Zrotation Xrotation Yrotation
								JOINT LeftHandIndex1
								{
									OFFSET	 0.000000	 0.086006	 0.000000
									CHANNELS 3 Zrotation Xrotation Yrotation
									JOINT LeftHandIndex2
									{
										OFFSET	 0.000000	 0.047237	 0.000000
										CHANNELS 3 Zrotation Xrotation Yrotation
										JOINT LeftHandIndex3
										{
											OFFSET	-0.004284	 0.038165	 0.000551
											CHANNELS 3 Zrotation Xrotation Yrotation
											End Site
											{
												OFFSET	-0.004284	 0.038165	 0.000551
											}
										}
									}
								}
							}
						}
					}
				}
				JOINT Neck
				{
					OFFSET	 0.000000	 0.176489	 0.000000
					CHANNELS 3 Zrotation Xrotation Yrotation
					JOINT Head
					{
						OFFSET	 0.000000	 0.077941	 0.001747
						CHANNELS 3 Zrotation Xrotation Yrotation
						End Site
						{
							OFFSET	 0.000000	 0.077941	 0.001747
						}
					}
				}
				JOINT RightShoulder
				{
					OFFSET	-0.080363	 0.159706	-0.000306
					CHANNELS 3 Zrotation Xrotation Yrotation
					JOINT RightArm
					{
						OFFSET	 0.000000	 0.164196	 0.000000
						CHANNELS 3 Zrotation Xrotation Yrotation
						JOINT RightForeArm
						{
							OFFSET	 0.000000	 0.365611	 0.000000
							CHANNELS 3 Zrotation Xrotation Yrotation
							JOINT RightHand
							{
								OFFSET	 0.000000	 0.360648	 0.000000
								CHANNELS 3 Zrotation Xrotation Yrotation
								JOINT RightHandIndex1
								{
									OFFSET	 0.000000	 0.069977	 0.000000
									CHANNELS 3 Zrotation Xrotation Yrotation
									JOINT RightHandIndex2
									{
										OFFSET	 0.000000	 0.052305	 0.000000
										CHANNELS 3 Zrotation Xrotation Yrotation
										JOINT RightHandIndex3
										{
											OFFSET	 0.009002	 0.042196	 0.000782
											CHANNELS 3 Zrotation Xrotation Yrotation
											End Site
											{
												OFFSET	 0.009002	 0.042196	 0.000782
											}
										}
									}
								}
							}
						}
					}
				}
			}
		}
	}
}
MOTION
Frames:    11
Frame Time: 0.03333334
-0.008340	 1.234677	 0.010735	 2.624788	 0.430198	 172.192900	-166.040700	 17.164130	-11.597930	 8.146133	-28.031570	 4.157839	-17.873080	 70.273010	 8.961099	 1.162011	 26.689040	-2.659652	-178.146300	 11.147980	 3.129919	-2.612080	-31.029490	 7.761993	 11.051160	 79.347600	-9.185564	-1.288979	 28.372290	 2.710512	 2.126717	 6.108469	-3.437819	 4.090021	 5.183022	-1.852997	-2.459140	-4.551635	 8.035546	-113.190800	 6.484552	 92.935490	 14.477970	 49.264940	 8.975750	 17.435820	-0.888361	 0.052390	 7.367240	-7.562758	-5.205571	 0.564778	 8.641097	-0.355708	-5.949579	 13.580350	 1.518249	 4.986152	-3.509338	-0.334626	 3.185699	-6.825765	 0.871769	-1.260864	-5.613328	 5.375996	 123.456100	 10.374070	-96.383130	-8.600792	 46.002380	-1.383293	-5.100118	-0.200325	 0.049552	-8.161782	-7.913611	-40.305750	-2.309049	 4.849301	 0.896214	 12.531210	 22.803270	-5.136466	-8.499968	 13.023750	-0.520546
-0.008305	 1.236685	 0.010534	 2.613845	 0.421404	 172.151100	-166.184400	 17.155510	-11.026870	 8.139244	-28.040560	 4.121032	-17.933360	 70.013390	 8.912118	 1.161971	 26.688510	-2.659636	-178.002600	 11.175020	 2.541443	-2.614272	-31.056390	 7.742374	 10.749920	 79.006290	-8.850544	-1.288940	 28.371790	 2.710495	 2.151700	 6.028181	-3.417317	 4.008242	 5.412562	-1.827389	-2.374769	-4.894314	 7.981680	-113.173500	 6.486977	 92.937320	 12.847060	 49.229400	 10.249850	 19.353400	-0.982460	 0.083730	 6.692599	-7.790644	-5.034870	 0.578217	 8.599422	-0.355653	-5.949408	 13.589720	 1.519253	 4.986830	-3.494454	-0.334266	 3.185208	-6.826130	 0.874597	-1.258028	-5.662885	 5.383261	 123.444500	 10.375970	-96.381910	-8.410411	 46.075800	-1.504058	-5.114985	-0.200996	 0.049718	-8.522078	-8.030153	-40.133450	-2.313906	 4.864516	 0.896017	 12.534090	 22.843410	-5.146145	-8.500259	 13.056600	-0.522620
-0.008273	 1.238704	 0.010356	 2.595758	 0.404843	 172.071900	-166.324100	 17.141780	-10.475940	 8.124256	-28.050680	 4.051993	-18.036530	 69.746700	 8.908476	 1.161898	 26.687520	-2.659607	-177.858700	 11.222520	 1.924081	-2.617449	-31.097620	 7.706579	 10.393360	 78.664850	-8.453931	-1.288870	 28.370870	 2.710466	 2.186487	 5.945808	-3.377000	 3.897746	 5.634552	-1.781260	-2.265102	-5.238438	 7.899330	-113.141500	 6.491476	 92.940700	 11.350930	 49.208370	 11.443220	 21.093760	-1.066933	 0.114801	 6.148581	-8.056257	-4.768970	 0.603039	 8.522425	-0.355526	-5.949091	 13.607020	 1.521109	 4.988083	-3.466958	-0.333602	 3.184300	-6.826805	 0.879820	-1.255571	-5.718327	 5.399491	 123.423100	 10.379440	-96.379660	-6.125945	 46.145290	-3.123374	-8.037568	-0.315223	 0.036445	-7.455048	-8.132984	-39.843600	-2.322880	 4.892624	 0.895655	 12.539440	 22.917550	-5.164040	-8.500797	 13.117290	-0.526451
-0.008244	 1.240687	 0.010210	 2.569813	 0.377881	 171.947400	-166.454400	 17.123920	-10.067990	 8.154630	-28.048390	 4.060797	-18.188160	 69.477770	 8.958605	 1.161784	 26.685980	-2.659562	-177.717000	 11.295390	 1.285868	-2.621697	-31.154910	 7.651456	 9.979036	 78.331220	-7.992598	-1.288762	 28.369440	 2.710420	 2.232513	 5.862088	-3.319607	 3.760540	 5.840831	-1.714711	-2.132395	-5.575906	 7.792440	-113.092000	 6.498429	 92.945910	 9.989389	 49.209610	 12.560150	 22.659050	-1.142079	 0.144980	 5.728644	-8.365131	-4.412915	 0.641508	 8.403070	-0.355262	-5.948602	 13.633830	 1.523984	 4.990023	-3.424340	-0.332574	 3.182895	-6.827852	 0.887917	-1.253580	-5.780105	 5.428854	 123.389800	 10.384860	-96.376200	-3.255601	 46.150870	-5.154233	-11.768890	-0.460047	 0.011253	-6.020798	-8.268227	-39.446770	-2.336789	 4.936189	 0.895104	 12.547790	 23.032470	-5.191813	-8.501620	 13.211360	-0.532390
-0.008220	 1.242661	 0.010105	 2.534413	 0.338145	 171.762500	-166.574200	 17.100160	-9.669537	 8.156268	-28.053160	 3.984091	-18.400560	 69.199590	 9.074233	 1.161617	 26.683710	-2.659496	-177.573900	 11.400930	 0.609150	-2.627280	-31.232530	 7.570744	 9.483447	 78.000530	-7.440232	-1.288602	 28.367340	 2.710352	 2.293963	 5.774793	-3.248362	 3.594503	 6.037549	-1.626973	-1.974362	-5.915111	 7.662461	-113.019200	 6.508682	 92.953560	 8.714962	 49.241170	 13.645680	 24.105500	-1.210766	 0.174753	 5.413528	-8.740610	-3.963412	 0.698054	 8.227568	-0.354727	-5.947884	 13.673260	 1.528211	 4.992876	-3.361683	-0.331065	 3.180828	-6.829390	 0.899820	-1.252071	-5.851399	 5.478240	 123.341000	 10.392790	-96.371070	-1.036206	 46.124770	-6.698261	-14.598620	-0.567860	-0.014190	-5.100425	-8.485678	-38.939620	-2.357239	 5.000240	 0.894312	 12.560180	 23.201440	-5.232726	-8.502815	 13.349670	-0.541123
-0.008202	 1.244620	 0.010057	 2.487674	 0.281952	 171.499800	-166.679600	 17.069800	-9.354337	 8.157763	-28.057490	 3.875535	-18.687320	 68.909280	 9.270473	 1.161381	 26.680530	-2.659403	-177.427900	 11.548000	-0.115420	-2.634385	-31.334040	 7.457347	 8.885536	 77.673100	-6.773437	-1.288376	 28.364370	 2.710257	 2.375163	 5.684014	-3.169263	 3.402294	 6.221933	-1.519501	-1.791746	-6.256552	 7.513144	-112.916500	 6.523132	 92.964310	 7.514010	 49.313630	 14.721450	 25.447760	-1.273777	 0.203830	 5.199129	-9.208136	-3.424548	 0.777738	 7.980133	-0.353675	-5.946878	 13.728830	 1.534170	 4.996892	-3.273363	-0.328944	 3.177915	-6.831559	 0.916598	-1.251060	-5.935262	 5.555750	 123.272200	 10.404010	-96.363880	 0.845249	 46.084380	-7.975844	-16.972150	-0.658176	-0.039629	-4.489149	-8.794026	-38.319400	-2.386067	 5.090525	 0.893235	 12.577910	 23.439660	-5.290564	-8.504462	 13.544650	-0.553438
-0.008189	 1.246555	 0.010086	 2.428244	 0.205087	 171.141700	-166.764800	 17.032720	-9.145126	 8.158803	-28.060510	 3.727487	-19.062650	 68.602680	 9.564058	 1.161061	 26.676200	-2.659275	-177.275800	 11.745730	-0.896419	-2.643074	-31.461920	 7.303670	 8.158442	 77.349750	-5.962806	-1.288070	 28.360340	 2.710128	 2.481765	 5.588450	-3.093293	 3.192930	 6.395099	-1.398303	-1.588385	-6.602415	 7.349453	-112.777000	 6.542823	 92.978900	 6.377956	 49.439660	 15.805790	 26.693530	-1.331636	 0.232148	 5.083143	-9.797842	-2.808414	 0.886031	 7.643650	-0.351689	-5.945518	 13.804370	 1.542272	 5.002345	-3.153291	-0.326070	 3.173956	-6.834510	 0.939407	-1.250508	-6.034771	 5.670777	 123.178600	 10.419200	-96.354020	 2.488877	 46.036340	-9.052429	-19.043570	-0.735881	-0.064891	-4.128880	-9.209886	-37.594530	-2.425263	 5.213270	 0.891844	 12.602480	 23.763560	-5.369512	-8.506637	 13.809770	-0.570190
-0.008184	 1.248487	 0.010218	 2.353225	 0.100705	 170.659000	-166.824900	 16.987710	-9.065253	 8.158789	-28.060470	 3.528358	-19.542380	 68.269820	 9.971763	 1.160632	 26.670390	-2.659105	-177.111400	 12.008840	-1.756703	-2.653464	-31.619810	 7.098313	 7.269492	 77.024160	-4.973042	-1.287660	 28.354940	 2.709954	 2.622139	 5.483921	-3.034813	 2.979239	 6.565123	-1.271556	-1.367686	-6.963273	 7.174326	-112.589900	 6.569268	 92.998410	 5.280809	 49.636540	 16.937230	 27.867910	-1.385655	 0.259956	 5.061679	-10.558500	-2.126760	 1.031117	 7.192508	-0.348023	-5.943713	 13.905620	 1.553132	 5.009646	-2.992359	-0.322237	 3.168653	-6.838468	 0.969976	-1.250263	-6.155341	 5.835847	 123.053100	 10.439580	-96.340820	 3.950169	 45.983810	-9.959381	-20.908810	-0.804805	-0.089869	-4.003857	-9.760456	-36.770720	-2.477804	 5.377786	 0.890111	 12.636300	 24.197780	-5.475910	-8.509430	 14.165180	-0.592662
-0.008186	 1.250398	 0.010485	 2.262169	-0.035562	 170.033000	-166.851300	 16.934190	-9.143730	 8.156514	-28.053830	 3.269829	-20.133750	 67.905590	 10.505290	 1.160078	 26.662890	-2.658885	-176.928900	 12.345160	-2.699968	-2.665182	-31.804860	 6.833682	 6.195596	 76.696010	-3.780841	-1.287129	 28.347970	 2.709729	 2.803463	 5.370765	-3.017451	 2.790703	 6.737655	-1.158010	-1.143282	-7.341803	 6.995716	-112.348100	 6.603534	 93.023460	 4.229528	 49.919590	 18.124980	 28.962440	-1.435477	 0.286927	 5.130297	-11.529090	-1.419675	 1.218599	 6.609049	-0.341581	-5.941408	 14.036510	 1.567172	 5.019065	-2.784315	-0.317313	 3.161800	-6.843586	 1.009492	-1.250025	-6.299941	 6.061270	 122.890900	 10.465850	-96.323670	 5.213283	 45.928710	-10.678440	-22.580760	-0.865752	-0.114274	-4.122305	-10.461620	-35.885210	-2.545742	 5.590467	 0.888095	 12.681520	 24.759240	-5.614473	-8.512833	 14.624730	-0.621744
-0.008198	 1.252336	 0.010935	 2.151649	-0.213749	 169.220200	-166.835500	 16.868820	-9.414278	 8.149863	-28.034630	 2.933762	-20.855450	 67.491120	 11.186100	 1.159361	 26.653180	-2.658601	-176.714400	 12.773580	-3.762212	-2.677834	-32.016020	 6.492868	 4.884303	 76.350460	-2.331741	-1.286443	 28.338950	 2.709439	 3.040342	 5.244445	-3.072375	 2.663242	 6.931921	-1.080646	-0.926782	-7.757362	 6.816362	-112.035500	 6.647990	 93.055640	 3.196553	 50.314170	 19.418410	 30.006430	-1.482435	 0.313450	 5.280544	-12.788950	-0.720046	 1.460852	 5.854528	-0.330415	-5.938476	 14.205690	 1.585325	 5.031212	-2.515398	-0.311000	 3.152948	-6.850210	 1.060567	-1.249257	-6.476729	 6.365808	 122.681200	 10.499740	-96.301340	 6.279330	 45.869110	-11.196250	-24.107920	-0.920837	-0.138038	-4.508160	-11.349800	-34.963340	-2.633585	 5.865384	 0.885863	 12.742540	 25.485150	-5.795333	-8.516886	 15.218900	-0.659397
-0.008255	 1.254335	 0.011606	 2.027136	-0.445437	 168.196800	-166.760800	 16.788570	-9.907690	 8.132786	-27.985150	 2.510151	-21.680580	 67.016330	 11.993140	 1.158467	 26.641080	-2.658246	-176.454300	 13.294200	-4.943790	-2.688054	-32.219460	 6.070456	 3.341184	 75.969700	-0.638181	-1.285588	 28.327690	 2.709078	 3.347775	 5.099820	-3.235781	 2.655514	 7.171209	-1.071115	-0.745326	-8.220151	 6.646221	-111.645400	 6.703736	 93.095470	 2.222873	 50.840030	 20.800490	 30.960820	-1.524945	 0.338596	 5.505121	-14.384550	-0.102807	 1.763108	 4.912532	-0.311998	-5.934890	 14.416790	 1.607982	 5.046326	-2.179821	-0.303204	 3.141910	-6.858485	 1.124296	-1.247114	-6.688350	 6.759770	 122.419500	 10.541920	-96.273340	 7.074983	 45.800510	-11.451650	-25.450900	-0.968537	-0.160218	-5.196151	-12.426850	-34.077040	-2.743250	 6.208452	 0.883671	 12.822840	 26.391180	-6.023916	-8.521392	 15.960560	-0.706487
